<svg width="24" height="22" viewBox="0 0 24 22" fill="none" xmlns="http://www.w3.org/2000/svg">
<path d="M6.74996 8.74999C5.92027 8.74999 5.24996 9.41562 5.24996 10.2078C5.24996 11.0797 5.92027 11.75 6.74996 11.75C7.57964 11.75 8.20777 11.082 8.20777 10.25C8.20777 9.41796 7.58433 8.74999 6.74996 8.74999ZM12 8.70781C11.1679 8.70781 10.5421 9.37578 10.5421 10.2078C10.5421 11.0398 11.2101 11.6656 12 11.6656C12.7898 11.6656 13.4578 10.9977 13.4578 10.2078C13.4578 9.41796 12.8343 8.70781 12 8.70781ZM17.2499 8.74999C16.4179 8.74999 15.7921 9.41796 15.7921 10.25C15.7921 11.082 16.4601 11.75 17.2499 11.75C18.082 11.75 18.7495 11.082 18.7495 10.25C18.7499 9.41562 18.0843 8.74999 17.2499 8.74999ZM12 0.457809C5.37183 0.457809 0.0421462 4.82281 0.0421462 10.2078C0.0421462 12.44 0.975427 14.4851 2.5223 16.1281C1.82527 17.9797 0.372146 19.5444 0.348709 19.5617C0.0382087 19.8898 -0.0437756 20.3703 0.131959 20.7805C0.272677 21.2281 0.674021 21.5 1.12496 21.5C4.0073 21.5 6.23902 20.293 7.64527 19.332C8.99855 19.7539 10.4653 20 12 20C18.6281 20 23.9578 15.6345 23.9578 10.2922C23.9578 4.94984 18.6281 0.457809 12 0.457809ZM12 17.75C10.746 17.75 9.50995 17.5566 8.32683 17.1819L7.26042 16.8479L6.34683 17.4922C5.67886 17.9666 4.75918 18.4944 3.65199 18.8516C3.99764 18.2834 4.32558 17.6445 4.58339 16.9648L5.08121 15.6523L4.11464 14.6272C3.2723 13.7234 2.25277 12.2281 2.25277 10.25C2.25277 6.11328 6.62339 2.75 11.9606 2.75C17.2978 2.75 21.6684 6.11328 21.6684 10.25C21.6684 14.3867 17.3812 17.75 12 17.75Z" fill="#606165"/>
</svg>
