<svg width="22" height="19" viewBox="0 0 22 19" fill="none" xmlns="http://www.w3.org/2000/svg">
<path d="M20.6328 4.14687C20.3187 3.41946 19.8657 2.76028 19.2992 2.20625C18.7323 1.65056 18.064 1.20896 17.3305 0.905469C16.5699 0.589516 15.7541 0.427793 14.9305 0.429689C13.775 0.429689 12.6477 0.746094 11.668 1.34375C11.4336 1.48672 11.2109 1.64375 11 1.81484C10.7891 1.64375 10.5664 1.48672 10.332 1.34375C9.35234 0.746094 8.225 0.429689 7.06953 0.429689C6.2375 0.429689 5.43125 0.589064 4.66953 0.905469C3.93359 1.21016 3.27031 1.64844 2.70078 2.20625C2.13359 2.75966 1.6805 3.41899 1.36719 4.14687C1.04141 4.9039 0.875 5.70781 0.875 6.53515C0.875 7.31562 1.03438 8.12889 1.35078 8.95624C1.61563 9.64764 1.99531 10.3648 2.48047 11.089C3.24922 12.2351 4.30625 13.4305 5.61875 14.6422C7.79375 16.6508 9.94766 18.0383 10.0391 18.0945L10.5945 18.4508C10.8406 18.6078 11.157 18.6078 11.4031 18.4508L11.9586 18.0945C12.05 18.0359 14.2016 16.6508 16.3789 14.6422C17.6914 13.4305 18.7484 12.2351 19.5172 11.089C20.0023 10.3648 20.3844 9.64764 20.6469 8.95624C20.9633 8.12889 21.1227 7.31562 21.1227 6.53515C21.125 5.70781 20.9586 4.9039 20.6328 4.14687ZM11 16.5969C11 16.5969 2.65625 11.2508 2.65625 6.53515C2.65625 4.14687 4.63203 2.21094 7.06953 2.21094C8.78281 2.21094 10.2688 3.16718 11 4.56406C11.7312 3.16718 13.2172 2.21094 14.9305 2.21094C17.368 2.21094 19.3438 4.14687 19.3438 6.53515C19.3438 11.2508 11 16.5969 11 16.5969Z" fill="#D64545"/>
</svg>
