<svg width="128" height="35" viewBox="0 0 128 35" fill="none" xmlns="http://www.w3.org/2000/svg">
<path d="M31.9814 25.954L28.6626 34.1316C28.5719 34.3563 28.2524 34.3563 28.1617 34.1316L22.1691 19.3492C22.0784 19.1266 21.7589 19.1266 21.6682 19.3492L19.613 24.4161C19.6006 24.4471 19.5821 24.4739 19.5614 24.4965C19.5635 24.5378 19.5573 24.5769 19.5429 24.6161L16.2261 32.7917C16.1354 33.0164 15.8138 33.0164 15.7231 32.7917L9.73056 18.0113C9.63986 17.7866 9.32034 17.7866 9.22964 18.0113L7.17441 23.0783C7.13318 23.1793 7.03423 23.2453 6.92292 23.2453H0.270738C0.0790267 23.2453 -0.0508421 23.0536 0.0192456 22.8763L9.22964 0.167748C9.3224 -0.0569456 9.64192 -0.0548843 9.73262 0.167748L15.9643 15.5727L21.6682 1.50767C21.7589 1.28297 22.0805 1.28297 22.1712 1.50767L31.9814 25.754C32.0062 25.8179 32.0062 25.8901 31.9814 25.954Z" fill="url(#paint0_linear_1_5)"/>
<path d="M67.3 9.11005L72.62 22.1301L77.912 9.11005H81.58V28.1501H78.36V20.8701L78.78 14.2061L74.048 25.9101H71.052L66.432 14.1781L66.852 20.8701V28.1501H63.632V9.11005H67.3ZM98.0188 28.2901C97.0668 28.2901 96.3015 28.0941 95.7228 27.7021C95.1628 27.3101 94.7522 26.8247 94.4908 26.2461C93.6882 26.9927 92.9135 27.5434 92.1668 27.8981C91.4202 28.2527 90.6175 28.4301 89.7588 28.4301C88.5082 28.4301 87.5842 28.0287 86.9868 27.2261C86.4082 26.4234 86.1188 25.4061 86.1188 24.1741C86.1188 23.3527 86.2682 22.6341 86.5668 22.0181C86.8842 21.3834 87.3975 20.8887 88.1068 20.5341C88.8162 20.1794 89.7868 20.0021 91.0188 20.0021C91.5042 20.0021 92.0082 20.0394 92.5308 20.1141C93.0535 20.1701 93.5762 20.2447 94.0988 20.3381V18.6861C94.0988 17.9021 93.8842 17.3701 93.4548 17.0901C93.0255 16.7914 92.4468 16.6421 91.7188 16.6421C91.1588 16.6421 90.5428 16.7167 89.8708 16.8661C89.2175 17.0154 88.5082 17.2487 87.7428 17.5661L86.8188 14.8221C88.7042 14.0567 90.4122 13.6741 91.9428 13.6741C93.3242 13.6741 94.3882 13.9074 95.1348 14.3741C95.9002 14.8407 96.4322 15.4567 96.7308 16.2221C97.0295 16.9874 97.1788 17.8087 97.1788 18.6861V24.1461C97.1788 24.4261 97.2535 24.6967 97.4028 24.9581C97.5708 25.2007 97.8882 25.3221 98.3548 25.3221H98.6628V28.2901H98.0188ZM89.2268 24.1181C89.2268 24.6221 89.3388 25.0234 89.5628 25.3221C89.7868 25.6021 90.1135 25.7421 90.5428 25.7421C90.9722 25.7421 91.4575 25.6301 91.9988 25.4061C92.5402 25.1821 93.2402 24.6594 94.0988 23.8381V22.6341C93.1282 22.4661 92.1762 22.3821 91.2428 22.3821C90.5148 22.3821 89.9922 22.5314 89.6748 22.8301C89.3762 23.1287 89.2268 23.5581 89.2268 24.1181ZM111.202 25.3501V28.1501H101.066V25.6301L107.058 16.7541H101.346V13.9541H110.922V16.4741L104.93 25.3501H111.202ZM126.004 27.3381C125.034 27.7301 124.119 28.0101 123.26 28.1781C122.402 28.3461 121.59 28.4301 120.824 28.4301C118.715 28.4301 117.119 27.8327 116.036 26.6381C114.954 25.4434 114.412 23.8567 114.412 21.8781V20.1981C114.412 18.8727 114.655 17.7247 115.14 16.7541C115.626 15.7834 116.316 15.0274 117.212 14.4861C118.108 13.9447 119.163 13.6741 120.376 13.6741C121.366 13.6741 122.29 13.8794 123.148 14.2901C124.026 14.6821 124.735 15.3074 125.276 16.1661C125.836 17.0061 126.116 18.0887 126.116 19.4141C126.116 19.8061 126.088 20.2261 126.032 20.6741C125.976 21.1034 125.883 21.5607 125.752 22.0461H117.52C117.558 23.2034 117.847 24.0714 118.388 24.6501C118.93 25.2287 119.798 25.5181 120.992 25.5181C121.627 25.5181 122.28 25.4434 122.952 25.2941C123.643 25.1447 124.352 24.9207 125.08 24.6221L126.004 27.3381ZM120.376 16.3901C119.518 16.3901 118.846 16.6701 118.36 17.2301C117.894 17.7714 117.623 18.5554 117.548 19.5821H122.924C122.943 19.4887 122.952 19.4047 122.952 19.3301C122.952 19.2367 122.952 19.1527 122.952 19.0781C122.952 18.1821 122.7 17.5101 122.196 17.0621C121.692 16.6141 121.086 16.3901 120.376 16.3901Z" fill="#606165"/>
<defs>
<linearGradient id="paint0_linear_1_5" x1="16" y1="0" x2="16" y2="34.3001" gradientUnits="userSpaceOnUse">
<stop stop-color="#1B2BB6"/>
<stop offset="1" stop-color="#D26FEB"/>
</linearGradient>
</defs>
</svg>
