<svg width="32" height="35" viewBox="0 0 32 35" fill="none" xmlns="http://www.w3.org/2000/svg">
<path d="M31.9814 25.954L28.6626 34.1316C28.5719 34.3563 28.2524 34.3563 28.1617 34.1316L22.1691 19.3492C22.0784 19.1266 21.7589 19.1266 21.6682 19.3492L19.613 24.4161C19.6006 24.4471 19.5821 24.4739 19.5614 24.4965C19.5635 24.5378 19.5573 24.5769 19.5429 24.6161L16.2261 32.7917C16.1354 33.0164 15.8138 33.0164 15.7231 32.7917L9.73056 18.0113C9.63986 17.7866 9.32034 17.7866 9.22964 18.0113L7.17441 23.0783C7.13318 23.1793 7.03423 23.2453 6.92292 23.2453H0.270738C0.0790267 23.2453 -0.0508421 23.0536 0.0192456 22.8763L9.22964 0.167748C9.3224 -0.0569456 9.64192 -0.0548843 9.73262 0.167748L15.9643 15.5727L21.6682 1.50767C21.7589 1.28297 22.0805 1.28297 22.1712 1.50767L31.9814 25.754C32.0062 25.8179 32.0062 25.8901 31.9814 25.954Z" fill="url(#paint0_linear_444_45)"/>
<defs>
<linearGradient id="paint0_linear_444_45" x1="16" y1="0" x2="16" y2="34.3001" gradientUnits="userSpaceOnUse">
<stop stop-color="#1B2BB6"/>
<stop offset="1" stop-color="#D26FEB"/>
</linearGradient>
</defs>
</svg>
