<svg width="14" height="14" viewBox="0 0 14 14" fill="none" xmlns="http://www.w3.org/2000/svg">
<path d="M0.724149 0.0529968C0.640449 0.0111341 0.54668 -0.0063978 0.453509 0.00239529C0.360338 0.0111884 0.271505 0.0459535 0.197115 0.102736C0.122724 0.159519 0.0657633 0.236039 0.0327109 0.323593C-0.000341587 0.411147 -0.00815856 0.50622 0.0101492 0.597997L1.41315 5.448C1.43931 5.53838 1.49044 5.61955 1.56067 5.68217C1.6309 5.74479 1.71737 5.78632 1.81015 5.802L7.50015 6.755C7.76815 6.808 7.76815 7.192 7.50015 7.245L1.81015 8.198C1.71737 8.21367 1.6309 8.25521 1.56067 8.31783C1.49044 8.38045 1.43931 8.46161 1.41315 8.552L0.0101492 13.402C-0.00815856 13.4938 -0.000341587 13.5888 0.0327109 13.6764C0.0657633 13.764 0.122724 13.8405 0.197115 13.8973C0.271505 13.954 0.360338 13.9888 0.453509 13.9976C0.54668 14.0064 0.640449 13.9889 0.724149 13.947L13.7241 7.447C13.8071 7.40543 13.8768 7.3416 13.9256 7.26266C13.9743 7.18372 14.0001 7.09277 14.0001 7C14.0001 6.90722 13.9743 6.81628 13.9256 6.73733C13.8768 6.65839 13.8071 6.59457 13.7241 6.553L0.724149 0.0529968Z" fill="#377DFF"/>
</svg>
